<svg xmlns="http://www.w3.org/2000/svg" viewBox="0 0 360 110" role="img" aria-label="ECG de AESP com complexos organizados">
  <title>AESP  ritmo organizado sem pulso</title>
  <rect width="360" height="110" fill="#0f1620"/>
  <g stroke="#1e2d3d" stroke-width="0.5">
    <line x1="0" y1="27.5" x2="360" y2="27.5"/>
    <line x1="0" y1="55" x2="360" y2="55"/>
    <line x1="0" y1="82.5" x2="360" y2="82.5"/>
    <line x1="45" y1="0" x2="45" y2="110"/>
    <line x1="90" y1="0" x2="90" y2="110"/>
    <line x1="135" y1="0" x2="135" y2="110"/>
    <line x1="180" y1="0" x2="180" y2="110"/>
    <line x1="225" y1="0" x2="225" y2="110"/>
    <line x1="270" y1="0" x2="270" y2="110"/>
    <line x1="315" y1="0" x2="315" y2="110"/>
  </g>
  <path fill="none" stroke="#22d36b" stroke-width="2.2" stroke-linejoin="round"
    d="M0,55 L30,55 L34,52 L38,55 L42,55 L46,55 L50,48 L54,18 L58,88 L62,55 L66,55 L70,55 L74,52 L78,55 L82,55 L86,55 L90,48 L94,18 L98,88 L102,55 L106,55 L110,55 L114,52 L118,55 L122,55 L126,55 L130,48 L134,18 L138,88 L142,55 L146,55 L150,55 L154,52 L158,55 L162,55 L166,55 L170,48 L174,18 L178,88 L182,55 L186,55 L190,55 L194,52 L198,55 L202,55 L206,55 L210,48 L214,18 L218,88 L222,55 L226,55 L230,55 L234,52 L238,55 L242,55 L246,55 L250,48 L254,18 L258,88 L262,55 L266,55 L270,55 L274,52 L278,55 L282,55 L286,55 L290,48 L294,18 L298,88 L302,55 L306,55 L310,55 L314,52 L318,55 L322,55 L326,55 L330,48 L334,18 L338,88 L342,55 L346,55 L350,55 L360,55"/>
</svg>
