<?xml version="1.0" encoding="UTF-8"?>
<svg xmlns="http://www.w3.org/2000/svg" viewBox="0 0 400 130" role="img" aria-label="AESP ritmo organizado">
  <title>AESP ritmo organizado</title>
  <defs>
    <pattern id="gridMinor" width="8" height="8" patternUnits="userSpaceOnUse">
      <path d="M 8 0 L 0 0 0 8" fill="none" stroke="#fde8e8" stroke-width="0.4"/>
    </pattern>
    <pattern id="gridMajor" width="40" height="40" patternUnits="userSpaceOnUse">
      <rect width="40" height="40" fill="url(#gridMinor)"/>
      <path d="M 40 0 L 0 0 0 40" fill="none" stroke="#f5b8b8" stroke-width="0.8"/>
    </pattern>
  </defs>
  <rect width="400" height="130" fill="#fffcfc"/>
  <rect width="400" height="130" fill="url(#gridMajor)"/>
  <rect x="0" y="0" width="400" height="18" fill="#1a2b3c" opacity="0.92"/>
  <text x="10" y="13" fill="#fff" font-family="Segoe UI, Arial, sans-serif" font-size="10" font-weight="600">AESP — QRS estreito organizado</text>
  <text x="300" y="13" fill="#a8c4e0" font-family="Segoe UI, Arial, sans-serif" font-size="9">sem pulso</text>
  <path fill="none" stroke="#c62828" stroke-width="2" stroke-linecap="round" stroke-linejoin="round"
    d="M0,68 L28,68 L32,64 L36,68 L40,68 L44,68 L48,62 L52,30 L56,100 L60,68 L64,68 L68,68 L72,64 L76,68 L80,68 L84,68 L88,62 L92,30 L96,100 L100,68 L104,68 L108,68 L112,64 L116,68 L120,68 L124,68 L128,62 L132,30 L136,100 L140,68 L144,68 L148,68 L152,64 L156,68 L160,68 L164,68 L168,62 L172,30 L176,100 L180,68 L184,68 L188,68 L192,64 L196,68 L200,68 L204,68 L208,62 L212,30 L216,100 L220,68 L224,68 L228,68 L232,64 L236,68 L240,68 L244,68 L248,62 L252,30 L256,100 L260,68 L264,68 L268,68 L272,64 L276,68 L280,68 L284,68 L288,62 L292,30 L296,100 L300,68 L304,68 L308,68 L312,64 L316,68 L320,68 L324,68 L328,62 L332,30 L336,100 L340,68 L344,68 L348,68 L352,64 L356,68 L360,68 L364,68 L368,62 L372,30 L376,100 L380,68 L384,68 L388,68 L392,64 L396,68 L400,68"/>
</svg>
