<svg xmlns="http://www.w3.org/2000/svg" viewBox="0 0 360 110" role="img" aria-label="ECG de taquicardia ventricular sem pulso">
  <title>Taquicardia ventricular sem pulso</title>
  <rect width="360" height="110" fill="#0f1620"/>
  <g stroke="#1e2d3d" stroke-width="0.5">
    <line x1="0" y1="27.5" x2="360" y2="27.5"/>
    <line x1="0" y1="55" x2="360" y2="55"/>
    <line x1="0" y1="82.5" x2="360" y2="82.5"/>
    <line x1="45" y1="0" x2="45" y2="110"/>
    <line x1="90" y1="0" x2="90" y2="110"/>
    <line x1="135" y1="0" x2="135" y2="110"/>
    <line x1="180" y1="0" x2="180" y2="110"/>
    <line x1="225" y1="0" x2="225" y2="110"/>
    <line x1="270" y1="0" x2="270" y2="110"/>
    <line x1="315" y1="0" x2="315" y2="110"/>
  </g>
  <path fill="none" stroke="#22d36b" stroke-width="2.2" stroke-linejoin="round"
    d="M0,55 L18,55 L22,55 L26,18 L30,92 L34,55 L38,55 L42,55 L46,55 L50,18 L54,92 L58,55 L62,55 L66,55 L70,55 L74,18 L78,92 L82,55 L86,55 L90,55 L94,55 L98,18 L102,92 L106,55 L110,55 L114,55 L118,55 L122,18 L126,92 L130,55 L134,55 L138,55 L142,55 L146,18 L150,92 L154,55 L158,55 L162,55 L166,55 L170,18 L174,92 L178,55 L182,55 L186,55 L190,55 L194,18 L198,92 L202,55 L206,55 L210,55 L214,55 L218,18 L222,92 L226,55 L230,55 L234,55 L238,55 L242,18 L246,92 L250,55 L254,55 L258,55 L262,55 L266,18 L270,92 L274,55 L278,55 L282,55 L286,55 L290,18 L294,92 L298,55 L302,55 L306,55 L310,55 L314,18 L318,92 L322,55 L326,55 L330,55 L334,55 L338,18 L342,92 L346,55 L350,55 L354,55 L360,55"/>
</svg>
