<?xml version="1.0" encoding="UTF-8"?>
<svg xmlns="http://www.w3.org/2000/svg" viewBox="0 0 400 130" role="img" aria-label="Fibrilacao ventricular">
  <title>Fibrilacao ventricular</title>
  <defs>
    <pattern id="gridMinor" width="8" height="8" patternUnits="userSpaceOnUse">
      <path d="M 8 0 L 0 0 0 8" fill="none" stroke="#fde8e8" stroke-width="0.4"/>
    </pattern>
    <pattern id="gridMajor" width="40" height="40" patternUnits="userSpaceOnUse">
      <rect width="40" height="40" fill="url(#gridMinor)"/>
      <path d="M 40 0 L 0 0 0 40" fill="none" stroke="#f5b8b8" stroke-width="0.8"/>
    </pattern>
  </defs>
  <rect width="400" height="130" fill="#fffcfc"/>
  <rect width="400" height="130" fill="url(#gridMajor)"/>
  <rect x="0" y="0" width="400" height="18" fill="#1a2b3c" opacity="0.92"/>
  <text x="10" y="13" fill="#fff" font-family="Segoe UI, Arial, sans-serif" font-size="10" font-weight="600">FV ù Fibrilacao ventricular</text>
  <text x="310" y="13" fill="#a8c4e0" font-family="Segoe UI, Arial, sans-serif" font-size="9">25 mm/s À 10 mm/mV</text>
  <path fill="none" stroke="#c62828" stroke-width="2" stroke-linecap="round" stroke-linejoin="round"
    d="M0,68 C2,58 4,78 6,62 C8,48 10,82 12,55 C14,42 16,88 18,60 C20,50 22,75 24,58 C26,45 28,85 30,52 C32,40 34,90 36,62 C38,48 40,78 42,55 C44,38 46,92 48,65 C50,52 52,80 54,58 C56,44 58,86 60,54 C62,42 64,88 66,60 C68,50 70,76 72,58 C74,46 76,84 78,56 C80,44 82,82 84,62 C86,48 88,74 90,58 C92,42 94,88 96,64 C98,50 100,78 102,56 C104,40 106,90 108,62 C110,48 112,80 114,54 C116,38 118,92 120,66 C122,52 124,76 126,58 C128,44 130,86 132,56 C134,42 136,88 138,62 C140,50 142,74 144,58 C146,46 148,84 150,54 C152,40 154,90 156,64 C158,50 160,78 162,56 C164,44 166,82 168,60 C170,48 172,76 174,58 C176,42 178,88 180,62 C182,50 184,80 186,56 C188,44 190,86 192,60 C194,48 196,74 198,58 C200,42 202,90 204,64 C206,50 208,78 210,54 C212,40 214,88 216,62 C218,48 220,82 222,58 C224,44 226,84 228,56 C230,42 232,88 234,64 C236,50 238,76 240,58 C242,46 244,86 246,60 C248,48 250,78 252,56 C254,42 256,90 258,62 C260,50 262,74 264,58 C266,44 268,84 270,54 C272,40 274,88 276,62 C278,50 280,78 282,56 C284,44 286,82 288,60 C290,48 292,76 294,58 C296,42 298,88 300,64 C302,50 304,80 306,56 C308,44 310,86 312,60 C314,48 316,74 318,58 C320,42 322,90 324,62 C326,50 328,78 330,56 C332,44 334,84 336,60 C338,48 340,76 342,58 C344,46 346,86 348,62 C350,50 352,74 354,58 C356,44 358,82 360,60 C362,48 364,76 366,58 C368,46 370,84 372,62 C374,50 376,78 378,56 C380,44 382,86 384,60 C386,50 388,72 390,58 C392,48 394,78 396,64 L400,68"/>
</svg>
