<svg xmlns="http://www.w3.org/2000/svg" viewBox="0 0 360 110" role="img" aria-label="ECG de fibrilaçăo ventricular">
  <title>Fibrilaçăo ventricular</title>
  <rect width="360" height="110" fill="#0f1620"/>
  <g stroke="#1e2d3d" stroke-width="0.5">
    <line x1="0" y1="27.5" x2="360" y2="27.5"/>
    <line x1="0" y1="55" x2="360" y2="55"/>
    <line x1="0" y1="82.5" x2="360" y2="82.5"/>
    <line x1="45" y1="0" x2="45" y2="110"/>
    <line x1="90" y1="0" x2="90" y2="110"/>
    <line x1="135" y1="0" x2="135" y2="110"/>
    <line x1="180" y1="0" x2="180" y2="110"/>
    <line x1="225" y1="0" x2="225" y2="110"/>
    <line x1="270" y1="0" x2="270" y2="110"/>
    <line x1="315" y1="0" x2="315" y2="110"/>
  </g>
  <path fill="none" stroke="#22d36b" stroke-width="2.2" stroke-linejoin="round"
    d="M0,55 L4,38 L7,72 L10,32 L13,68 L16,28 L19,75 L22,35 L25,70 L28,25 L31,78 L34,40 L37,65 L40,30 L43,72 L46,45 L49,58 L52,22 L55,80 L58,35 L61,68 L64,28 L67,74 L70,42 L73,62 L76,25 L79,77 L82,38 L85,70 L88,32 L91,68 L94,26 L97,76 L100,40 L103,60 L106,30 L109,72 L112,45 L115,58 L118,24 L121,82 L124,36 L127,68 L130,28 L133,74 L136,44 L139,62 L142,22 L145,78 L148,38 L151,66 L154,30 L157,72 L160,48 L163,58 L166,26 L169,76 L172,42 L175,64 L178,28 L181,70 L184,35 L187,68 L190,25 L193,78 L196,40 L199,62 L202,30 L205,72 L208,45 L211,58 L214,22 L217,80 L220,36 L223,68 L226,28 L229,74 L232,44 L235,62 L238,24 L241,78 L244,38 L247,66 L250,30 L253,72 L256,48 L259,58 L262,26 L265,76 L268,42 L271,64 L274,28 L277,70 L280,35 L283,68 L286,25 L289,78 L292,40 L295,62 L298,30 L301,72 L304,45 L307,58 L310,24 L313,80 L316,36 L319,68 L322,28 L325,74 L328,44 L331,62 L334,22 L337,78 L340,38 L343,66 L346,30 L349,72 L352,48 L355,58 L358,55 L360,55"/>
</svg>
